# xmcd CD database file
#
# Track frame offsets:
#	150
#	13187
#	25957
#	42397
#	55785
#	70462
#	84465
#	98907
#	111895
#	129617
#	142222
#	153595
#	169142
#	187647
#	201017
#	215022
#	232407
#	247047
#	260132
#	277217
#	290717
#	307347
#
# Disc length: 4305 seconds
#
# Revision: 2
# Processed by: cddbd v1.5.1PL0 Copyright (c) Steve Scherf et al.
# Submitted via: CDex 1.51
#
DISCID=6710cf16
DTITLE=Various Artist - 続々々々・ テレビまんが主題歌のあゆみ DISC1
DYEAR=1996
DGENRE=Anime
TTITLE0=こてんぐテン丸/おいらテン丸
TTITLE1=OKAWARI-BOYスターザンＳ/SHOW ME YOUR SPACE
TTITLE2=夢戦士ウイングマン/異次元ストーリー
TTITLE3=とんがり帽子のメモル/とんがり帽子のメモル
TTITLE4=ビデオ戦士レザリオン/ビデオ戦士レザリオン
TTITLE5=オヨネコぶーにゃん/オヨネコぶーにゃん
TTITLE6=よろしくメカドック/よろしくチューニング
TTITLE7=森のトントたち/わくわくサンタクロース
TTITLE8=は〜いステップジュン/びん感!メカニック
TTITLE9=不二子不二雄ワイド/ゆかいな大脱走
TTITLE10=プロゴルファー猿/夢を勝ちとろう
TTITLE11=へーい！ブンブー/ぼくはブンブー
TTITLE12=コンポラキッド/コンポラキッド
TTITLE13=宇宙船サジタリウス/スターダストボーイズ
TTITLE14=メイプルタウン物語/メイプルタウン物語
TTITLE15=ドラゴンボール/魔訶不思議アドベンチャー！
TTITLE16=銀河流れ星銀/流れ星銀
TTITLE17=ウルトラマンキッズのことわざ物語/キッズのチャチャチャ
TTITLE18=青春アニメ全集/青春は雨
TTITLE19=Oh！ファミリー/カリフォルニア・ドリーミング
TTITLE20=聖闘士星矢/ペガサス幻想
TTITLE21=ドテラマン/正義の使者だぜドテラマン
EXTD=YEAR: 1996
EXTT0=
EXTT1=
EXTT2=
EXTT3=
EXTT4=
EXTT5=
EXTT6=
EXTT7=
EXTT8=
EXTT9=
EXTT10=
EXTT11=
EXTT12=
EXTT13=
EXTT14=
EXTT15=
EXTT16=
EXTT17=
EXTT18=
EXTT19=
EXTT20=
EXTT21=
PLAYORDER=
